HIERARCHY
ROOT Hips
{
	OFFSET 56.961102 -16.774715 94.092697
	CHANNELS 6 Xposition Yposition Zposition Xrotation Yrotation Zrotation
	JOINT spine
	{
		OFFSET 0.000000 -0.448574 7.800583
		CHANNELS 3 Xrotation Yrotation Zrotation
		JOINT spine1
		{
			OFFSET 0.000000 -0.000002 10.136398
			CHANNELS 3 Xrotation Yrotation Zrotation
			JOINT spine2
			{
				OFFSET 0.000000 0.000000 9.712509
				CHANNELS 3 Xrotation Yrotation Zrotation
				JOINT Neck
				{
					OFFSET 0.000000 -1.188875 24.936096
					CHANNELS 3 Xrotation Yrotation Zrotation
					JOINT Head
					{
						OFFSET 0.000000 0.000000 7.533844
						CHANNELS 3 Xrotation Yrotation Zrotation
						End Site
						{
							OFFSET 0.000000 6.014017 18.236099
						}
					}
				}
				JOINT RightShoulder
				{
					OFFSET -4.089649 0.569454 10.488800
					CHANNELS 3 Xrotation Yrotation Zrotation
					JOINT RightArm
					{
						OFFSET 0.000000 -0.000002 13.757004
						CHANNELS 3 Xrotation Yrotation Zrotation
						JOINT RightArmRoll
						{
							OFFSET 0.000000 -0.000002 6.944778
							CHANNELS 3 Xrotation Yrotation Zrotation
							JOINT RightForeArm
							{
								OFFSET 0.000000 -0.000004 20.227692
								CHANNELS 3 Xrotation Yrotation Zrotation
								JOINT RightForeArmRoll
								{
									OFFSET 0.000000 0.000000 7.793121
									CHANNELS 3 Xrotation Yrotation Zrotation
									JOINT RightHand
									{
										OFFSET 0.000000 -0.000004 15.639099
										CHANNELS 3 Xrotation Yrotation Zrotation
										End Site
										{
											OFFSET 0.000000 0.000000 0.100006
										}
									}
								}
							}
						}
					}
				}
				JOINT LeftShoulder
				{
					OFFSET 4.089649 0.569454 10.488800
					CHANNELS 3 Xrotation Yrotation Zrotation
					JOINT LeftArm
					{
						OFFSET 0.000000 -0.000002 13.757004
						CHANNELS 3 Xrotation Yrotation Zrotation
						JOINT LeftArmRoll
						{
							OFFSET 0.000000 -0.000002 6.944778
							CHANNELS 3 Xrotation Yrotation Zrotation
							JOINT LeftForeArm
							{
								OFFSET 0.000000 -0.000004 20.227692
								CHANNELS 3 Xrotation Yrotation Zrotation
								JOINT LeftForeArmRoll
								{
									OFFSET 0.000000 0.000000 7.793121
									CHANNELS 3 Xrotation Yrotation Zrotation
									JOINT LeftHand
									{
										OFFSET 0.000000 -0.000004 15.639099
										CHANNELS 3 Xrotation Yrotation Zrotation
										End Site
										{
											OFFSET 0.000000 0.000000 0.100006
										}
									}
								}
							}
						}
					}
				}
			}
		}
	}
	JOINT RightUpLeg
	{
		OFFSET -6.914150 1.063580 -1.267883
		CHANNELS 3 Xrotation Yrotation Zrotation
		JOINT RightUpLegRoll
		{
			OFFSET 0.000000 -0.000003 18.337799
			CHANNELS 3 Xrotation Yrotation Zrotation
			JOINT RightLeg
			{
				OFFSET 0.000000 0.000004 -22.708496
				CHANNELS 3 Xrotation Yrotation Zrotation
				JOINT RightLegRoll
				{
					OFFSET 0.000000 -0.000004 22.782799
					CHANNELS 3 Xrotation Yrotation Zrotation
					JOINT RightFoot
					{
						OFFSET 0.000000 -0.000003 18.962898
						CHANNELS 3 Xrotation Yrotation Zrotation
						JOINT RightToeBase
						{
							OFFSET 0.000000 -0.000003 15.852005
							CHANNELS 3 Xrotation Yrotation Zrotation
							End Site
							{
								OFFSET 0.006718 0.884892 7.677017
							}
						}
					}
				}
			}
		}
	}
	JOINT LeftUpLeg
	{
		OFFSET 6.914150 1.063580 -1.267883
		CHANNELS 3 Xrotation Yrotation Zrotation
		JOINT LeftUpLegRoll
		{
			OFFSET 0.000000 -0.000003 18.337898
			CHANNELS 3 Xrotation Yrotation Zrotation
			JOINT LeftLeg
			{
				OFFSET 0.000000 -0.000004 22.708397
				CHANNELS 3 Xrotation Yrotation Zrotation
				JOINT LeftLegRoll
				{
					OFFSET 0.000000 -0.000004 22.993393
					CHANNELS 3 Xrotation Yrotation Zrotation
					JOINT LeftFoot
					{
						OFFSET 0.000000 -0.000003 18.752197
						CHANNELS 3 Xrotation Yrotation Zrotation
						JOINT LeftToeBase
						{
							OFFSET 0.000000 -0.000003 15.852005
							CHANNELS 3 Xrotation Yrotation Zrotation
							End Site
							{
								OFFSET -0.030113 0.884892 7.677002
							}
						}
					}
				}
			}
		}
	}
}
MOTION
Frames: 7
Frame Time: 0.041667
57.021599 -16.860317 94.029205 -2.927302 0.074284 0.859846 -2.588570 -0.053987 0.080793 -1.163862 -0.108564 0.165865 0.481216 -0.106542 0.167112 21.829334 1.324818 -0.779217 0.485173 -1.804425 -0.539637 -13.970272 -42.450131 -15.916245 35.124470 -47.178712 76.727920 -0.000001 0.000000 -0.000001 6.015762 3.909956 -0.623010 0.000009 0.000010 -2.999988 -5.000182 -7.999938 -0.000000 -16.044801 36.984426 18.497803 34.916743 52.493221 -69.603780 -0.000000 -0.000000 0.000002 2.199169 -6.637971 0.436054 -0.000004 0.000003 3.000002 -5.000177 8.000186 0.000018 -2.056145 179.335441 -1.417311 -179.999991 0.000005 -1.139995 168.037858 -1.423420 -0.679546 0.000001 -0.000000 0.352547 71.741609 7.152184 1.217990 25.456957 -7.355615 0.000011 -0.576267 -178.144092 8.563707 -0.000005 -0.000004 -1.327719 -12.107828 3.620260 0.661063 -0.000005 -0.000000 -0.313138 73.165936 -7.571817 0.165691 25.456964 7.355616 -0.000001 
57.019699 -16.866312 94.024490 -2.926279 0.073892 0.860840 -2.589651 -0.054037 0.080624 -1.165093 -0.109433 0.166571 0.479983 -0.107410 0.167837 21.833224 1.334251 -0.780070 0.482945 -1.810176 -0.539410 -13.970293 -42.437547 -15.915826 35.121748 -47.179050 76.725482 -0.000000 0.000000 -0.000001 6.017354 3.909508 -0.622997 0.000009 0.000010 -2.999988 -5.000183 -7.999936 -0.000001 -16.045434 36.983849 18.498615 34.916422 52.494939 -69.599341 -0.000000 -0.000000 0.000002 2.200682 -6.634068 0.436436 -0.000004 0.000003 2.999999 -5.000176 8.000188 0.000013 -2.060003 179.338419 -1.413084 -179.999991 0.000005 -1.139995 168.035221 -1.429273 -0.679843 0.000001 -0.000001 0.352586 71.743904 7.153718 1.214589 25.456955 -7.355615 0.000012 -0.574156 -178.145090 8.563365 -0.000005 -0.000005 -1.327180 -12.102827 3.620787 0.660819 -0.000004 -0.000000 -0.312929 73.163402 -7.571537 0.165063 25.456960 7.355617 -0.000001 
57.016602 -16.877314 94.037697 -2.924872 0.073476 0.862061 -2.590721 -0.053977 0.080441 -1.166442 -0.109983 0.167101 0.478632 -0.107961 0.168382 21.836383 1.340794 -0.780580 0.481507 -1.813995 -0.539163 -13.970538 -42.427742 -15.915702 35.117021 -47.177186 76.720790 -0.000000 0.000000 0.000000 6.018391 3.908657 -0.622985 0.000009 0.000011 -2.999990 -5.000183 -7.999939 0.000001 -16.045760 36.981830 18.499079 34.916036 52.496776 -69.595796 0.000000 -0.000000 -0.000001 2.201837 -6.630994 0.436692 -0.000004 0.000003 3.000002 -5.000175 8.000186 0.000019 -2.063451 179.340441 -1.410127 -179.999991 0.000005 -1.139995 168.033199 -1.432203 -0.679519 0.000001 -0.000001 0.352625 71.745530 7.154865 1.212171 25.456959 -7.355615 0.000011 -0.573208 -178.145090 8.563135 -0.000005 -0.000004 -1.326739 -12.099022 3.621162 0.660634 -0.000006 -0.000000 -0.312754 73.161489 -7.571223 0.164580 25.456965 7.355616 -0.000001 
57.020199 -16.875515 94.033302 -2.923034 0.073041 0.863559 -2.591761 -0.053796 0.080243 -1.167912 -0.110168 0.167424 0.477157 -0.108149 0.168719 21.838616 1.343967 -0.780685 0.480990 -1.815566 -0.538892 -13.970704 -42.421233 -15.915727 35.109983 -47.172715 76.713208 -0.000001 0.000000 0.000001 6.018781 3.907349 -0.622977 0.000009 0.000010 -2.999992 -5.000182 -7.999935 -0.000000 -16.046020 36.978333 18.499369 34.915726 52.498709 -69.593132 -0.000000 -0.000000 0.000000 2.202573 -6.628912 0.436816 -0.000004 0.000003 3.000001 -5.000175 8.000187 0.000018 -2.066504 179.340441 -1.408871 -179.999991 0.000005 -1.139995 168.031997 -1.434147 -0.678965 0.000002 -0.000001 0.352670 71.746247 7.155601 1.210642 25.456959 -7.355615 0.000011 -0.573693 -178.145090 8.563079 -0.000004 -0.000004 -1.326420 -12.096720 3.621339 0.660516 -0.000005 -0.000000 -0.312633 73.160055 -7.570945 0.163926 25.456962 7.355617 -0.000001 
57.014801 -16.878216 94.033508 -2.920721 0.072590 0.865380 -2.592759 -0.053482 0.080031 -1.169522 -0.109942 0.167514 0.475549 -0.107927 0.168818 21.839907 1.343295 -0.780337 0.481528 -1.814556 -0.538598 -13.971002 -42.418313 -15.916028 35.100127 -47.165393 76.702314 -0.000000 0.000000 -0.000000 6.018449 3.905501 -0.622965 0.000009 0.000010 -2.999992 -5.000183 -7.999936 -0.000005 -16.046003 36.972982 18.499272 34.915784 52.500830 -69.592183 -0.000000 -0.000000 -0.000003 2.202800 -6.627983 0.436777 -0.000004 0.000003 3.000002 -5.000176 8.000188 0.000011 -2.069121 179.340427 -1.409841 -179.999991 0.000005 -1.139994 168.031396 -1.433169 -0.678774 0.000002 -0.000001 0.352730 71.745953 7.155675 1.210573 25.456957 -7.355615 0.000011 -0.575862 -178.146100 8.563209 -0.000005 -0.000004 -1.326231 -12.096420 3.621295 0.660495 -0.000005 -0.000000 -0.312578 73.159604 -7.570660 0.163438 25.456960 7.355614 -0.000001 
57.016201 -16.879711 94.034904 -2.917781 0.072136 0.867489 -2.593771 -0.053035 0.079795 -1.171332 -0.109326 0.167380 0.473735 -0.107319 0.168693 21.839970 1.339145 -0.779474 0.483246 -1.811275 -0.538185 -13.971289 -42.418972 -15.916499 35.087867 -47.155093 76.688613 -0.000001 -0.000000 -0.000001 6.017400 3.903230 -0.622954 0.000010 0.000010 -2.999989 -5.000181 -7.999938 -0.000004 -16.045928 36.966169 18.499004 34.915398 52.502677 -69.591828 -0.000000 0.000000 0.000001 2.202508 -6.628044 0.436590 -0.000004 0.000003 3.000000 -5.000176 8.000187 0.000020 -2.070952 179.338433 -1.412397 -179.999991 0.000005 -1.139995 168.032298 -1.431209 -0.679332 0.000002 -0.000001 0.352796 71.744642 7.155343 1.211504 25.456960 -7.355615 0.000011 -0.579689 -178.146100 8.563476 -0.000005 -0.000004 -1.326180 -12.097516 3.621045 0.660542 -0.000004 -0.000000 -0.312565 73.159584 -7.570390 0.162675 25.456965 7.355616 -0.000001 
57.016899 -16.865913 94.035698 -2.914164 0.071681 0.869801 -2.594821 -0.052468 0.079528 -1.173403 -0.108391 0.167063 0.471671 -0.106395 0.168384 21.839205 1.332320 -0.778123 0.486094 -1.806314 -0.537574 -13.971529 -42.422438 -15.917023 35.073803 -47.142420 76.672855 -0.000000 -0.000000 -0.000000 6.015728 3.900707 -0.622938 0.000009 0.000010 -2.999990 -5.000182 -7.999936 0.000003 -16.045639 36.958382 18.498551 34.914062 52.504306 -69.591452 -0.000000 0.000000 -0.000000 2.201776 -6.628796 0.436263 -0.000004 0.000003 3.000001 -5.000176 8.000186 0.000019 -2.071742 179.336438 -1.415646 -179.999991 0.000005 -1.139995 168.035426 -1.428299 -0.679632 0.000002 -0.000000 0.352852 71.742497 7.154820 1.212658 25.456960 -7.355615 0.000011 -0.584830 -178.146100 8.563860 -0.000005 -0.000004 -1.326219 -12.099316 3.620631 0.660623 -0.000005 -0.000000 -0.312563 73.159673 -7.570075 0.161528 25.456960 7.355615 -0.000001 
